<svg xmlns="http://www.w3.org/2000/svg" viewBox="0 0 261.24 53.52"><defs><style>.cls-1{fill:#1d1d1b;}</style></defs><g id="Calque_2" data-name="Calque 2"><path class="cls-1" d="M277.17,607.22l.12-.6,1-.42a3.77,3.77,0,0,0,2.52-3.06L284,586.22q.66-3.24,1.32-7.23t1.26-7.47a2.54,2.54,0,0,0-1.62-3l-.72-.3.12-.6h14.52l-.12.6-1.32.42a3.75,3.75,0,0,0-2.58,3L291.33,591q-.48,2.46-1.11,5.91t-1.17,6.45a2.42,2.42,0,0,0,1.68,2.94l.9.36-.12.6Zm23.16,0,.12-.6.72-.3q2-1,1-2.76l-10-17L309,571.4a2,2,0,0,0,.87-1.68,1.57,1.57,0,0,0-1.17-1.26l-.54-.24.06-.6h9.42l-.12.6-.66.24a20.47,20.47,0,0,0-3.39,1.5,18.36,18.36,0,0,0-2.91,2.16L298.47,583l12.42,20.1a8,8,0,0,0,3.72,3.3l.54.18-.12.6Z" transform="translate(-277.17 -554.78)"/><path class="cls-1" d="M350.61,607.22l.18-.6L353,606a5.23,5.23,0,0,0,3.48-2.94l18.24-35.46h4.86l5.64,35.4a3.56,3.56,0,0,0,2.28,3l1.56.6-.12.6H373.83l.18-.6,1.32-.48a2.38,2.38,0,0,0,1.74-2.88l-1.38-9.66H362.91l-5,9.72a2,2,0,0,0-.18,1.68,1.85,1.85,0,0,0,1.26,1l1.86.6-.12.6Zm22.32-33.06-9.42,18.24h12Z" transform="translate(-277.17 -554.78)"/><path class="cls-1" d="M450.33,608.3a21.63,21.63,0,0,1-9.78-2.07,14.83,14.83,0,0,1-6.39-6,18.85,18.85,0,0,1-2.25-9.51,25.51,25.51,0,0,1,1.71-9.36,23.58,23.58,0,0,1,4.86-7.71,22.75,22.75,0,0,1,7.44-5.22,23.18,23.18,0,0,1,9.45-1.89,24.57,24.57,0,0,1,5.79.66,22.34,22.34,0,0,1,5.55,2.22l-1.44,9.24h-.6l-2-6.36a5.93,5.93,0,0,0-2.43-3.57,8.39,8.39,0,0,0-4.35-1,12.13,12.13,0,0,0-8.07,2.91,18.89,18.89,0,0,0-5.37,8.1,34.59,34.59,0,0,0-1.92,12q0,7.5,2.91,11.91a9.37,9.37,0,0,0,8.31,4.41,7.21,7.21,0,0,0,3.81-.9,8.1,8.1,0,0,0,2.61-2.76l4.44-7.2h.6l-1.44,9.12a24.83,24.83,0,0,1-5,2.13A22.17,22.17,0,0,1,450.33,608.3Z" transform="translate(-277.17 -554.78)"/><path class="cls-1" d="M504.15,607.22l.12-.6,1.14-.36a3.72,3.72,0,0,0,2.52-3l3.24-17q.6-3.18,1.26-7.05t1.26-7.35a2.71,2.71,0,0,0-1.86-3.3l-.6-.3.12-.6h27.06l-1.5,10.44h-.6l-1.2-5.52a4.14,4.14,0,0,0-4.68-3.72h-7.86l-3.3,17.4h5.52a4.53,4.53,0,0,0,4.08-2.16l2-3h.6l-2.16,11.46h-.6l-.72-2.4a3.42,3.42,0,0,0-3.6-2.7H519q-.78,4.38-1.68,9.24T515.73,606h9.66a6.34,6.34,0,0,0,3.18-.75,8.36,8.36,0,0,0,2.58-2.55l4-5.94h.6l-2.4,10.44Zm16.68-43.38q1.74-1.56,3.57-3.33t3.45-3.39a11.91,11.91,0,0,1,2.22-1.86,3.92,3.92,0,0,1,2-.48,2.61,2.61,0,0,1,2.1.84,3,3,0,0,1,.72,2,2.34,2.34,0,0,1-.93,1.77,11,11,0,0,1-3,1.65l-4.83,1.86q-2.31.9-4.71,1.8Z" transform="translate(-277.17 -554.78)"/></g></svg>